<svg width="145" height="102" viewBox="0 0 145 102" fill="none" xmlns="http://www.w3.org/2000/svg">
<path d="M72.5001 101L21.1926 78.3479V63.7659L52.4911 77.6112L72.5001 46.3037V101Z" stroke="white" stroke-width="1.5" stroke-miterlimit="10" stroke-linejoin="round"/>
<path d="M72.5 101L123.808 78.3479V63.7659L92.6926 77.4271L72.5 46.3037V101Z" stroke="white" stroke-width="1.5" stroke-miterlimit="10" stroke-linejoin="round"/>
<path d="M72.5001 1L21.1926 23.6519L72.5001 46.3038L123.808 23.6519L72.5001 1Z" stroke="white" stroke-width="1.5" stroke-miterlimit="10" stroke-linejoin="round"/>
<path d="M52.3993 77.5197L1 54.8678L21.1008 23.6523L72.5001 46.3043L52.3993 77.5197Z" stroke="white" stroke-width="1.5" stroke-miterlimit="10" stroke-linejoin="round"/>
<path d="M92.6008 77.5197L144 54.8678L123.899 23.6523L72.5 46.3043L92.6008 77.5197Z" stroke="white" stroke-width="1.5" stroke-miterlimit="10" stroke-linejoin="round"/>
<path d="M72.5001 1V46.3038L21.1008 23.6519L72.5001 1Z" stroke="white" stroke-width="1.5" stroke-miterlimit="10" stroke-linejoin="round"/>
<path d="M72.5001 1V46.3038L21.1008 23.6519L72.5001 1Z" fill="white" fill-opacity="0.1" stroke="white" stroke-width="1.5" stroke-miterlimit="10" stroke-linejoin="round"/>
<path d="M123.899 23.6519L72.5 1V46.3038L123.899 23.6519Z" stroke="white" stroke-width="1.5" stroke-miterlimit="10" stroke-linejoin="round"/>
<path d="M123.899 23.6519L72.5 1V46.3038L123.899 23.6519Z" fill="white" fill-opacity="0.2"/>
</svg>
